<svg version="1.1" viewBox="0.0 0.0 543.0 127.0" fill="none" stroke="none" stroke-linecap="square" stroke-miterlimit="10" xmlns:xlink="http://www.w3.org/1999/xlink" xmlns="http://www.w3.org/2000/svg"><clipPath id="p.0"><path d="m0 0l543.0 0l0 127.0l-543.0 0l0 -127.0z" clip-rule="nonzero"/></clipPath><g clip-path="url(#p.0)"><path fill="#000000" fill-opacity="0.0" d="m0 0l543.0 0l0 127.0l-543.0 0z" fill-rule="evenodd"/><path fill="#000000" fill-opacity="0.0" d="m21.695538 99.6601l93.543304 0" fill-rule="evenodd"/><path stroke="#000000" stroke-width="1.0" stroke-linejoin="round" stroke-linecap="butt" d="m21.695538 99.6601l87.543304 0" fill-rule="evenodd"/><path fill="#000000" stroke="#000000" stroke-width="1.0" stroke-linecap="butt" d="m109.238846 101.31184l4.5380936 -1.6517334l-4.5380936 -1.6517334z" fill-rule="evenodd"/><path fill="#000000" fill-opacity="0.0" d="m115.238846 99.6601l0 -93.543304" fill-rule="evenodd"/><path stroke="#000000" stroke-width="1.0" stroke-linejoin="round" stroke-linecap="butt" d="m115.238846 99.6601l0 -87.543304" fill-rule="evenodd"/><path fill="#000000" stroke="#000000" stroke-width="1.0" stroke-linecap="butt" d="m116.89058 12.116797l-1.6517334 -4.5380974l-1.6517334 4.5380974z" fill-rule="evenodd"/><path fill="#000000" fill-opacity="0.0" d="m21.750656 99.61286l93.51181 -93.480316" fill-rule="evenodd"/><path stroke="#000000" stroke-width="1.0" stroke-linejoin="round" stroke-linecap="butt" d="m21.750656 99.61286l89.268456 -89.23839" fill-rule="evenodd"/><path fill="#000000" stroke="#000000" stroke-width="1.0" stroke-linecap="butt" d="m112.18687 11.54262l2.0417023 -4.376527l-4.3772125 2.0402308z" fill-rule="evenodd"/><path fill="#000000" fill-opacity="0.0" d="m100.249344 84.11155l15.023621 0l0 15.496063l-15.023621 0z" fill-rule="evenodd"/><path stroke="#000000" stroke-width="1.0" stroke-linejoin="round" stroke-linecap="butt" stroke-dasharray="4.0,3.0" d="m100.249344 84.11155l15.023621 0l0 15.496063l-15.023621 0z" fill-rule="evenodd"/><path fill="#000000" fill-opacity="0.0" d="m32.24672 24.612862l38.48819 0l0 42.015747l-38.48819 0z" fill-rule="evenodd"/><path fill="#000000" d="m42.09047 47.235985l1.65625 -0.140625q0.125 1.0 0.546875 1.640625q0.4375 0.640625 1.34375 1.046875q0.921875 0.390625 2.0625 0.390625q1.0 0 1.78125 -0.296875q0.78125 -0.296875 1.15625 -0.8125q0.375 -0.53125 0.375 -1.15625q0 -0.625 -0.375 -1.09375q-0.359375 -0.46875 -1.1875 -0.796875q-0.546875 -0.203125 -2.390625 -0.640625q-1.828125 -0.453125 -2.5625 -0.84375q-0.96875 -0.5 -1.4375 -1.234375q-0.46875 -0.75 -0.46875 -1.671875q0 -1.0 0.578125 -1.875q0.578125 -0.890625 1.671875 -1.34375q1.109375 -0.453125 2.453125 -0.453125q1.484375 0 2.609375 0.484375q1.140625 0.46875 1.75 1.40625q0.609375 0.921875 0.65625 2.09375l-1.6875 0.125q-0.140625 -1.265625 -0.9375 -1.90625q-0.78125 -0.65625 -2.3125 -0.65625q-1.609375 0 -2.34375 0.59375q-0.734375 0.59375 -0.734375 1.421875q0 0.71875 0.53125 1.171875q0.5 0.46875 2.65625 0.96875q2.15625 0.484375 2.953125 0.84375q1.171875 0.53125 1.71875 1.359375q0.5625 0.828125 0.5625 1.90625q0 1.0625 -0.609375 2.015625q-0.609375 0.9375 -1.75 1.46875q-1.140625 0.515625 -2.578125 0.515625q-1.8125 0 -3.046875 -0.53125q-1.21875 -0.53125 -1.921875 -1.59375q-0.6875 -1.0625 -0.71875 -2.40625z" fill-rule="nonzero"/><path fill="#000000" fill-opacity="0.0" d="m49.262466 90.61286l38.48819 0l0 42.015755l-38.48819 0z" fill-rule="evenodd"/><path fill="#000000" d="m59.699966 117.53286l0 -13.359375l5.046875 0q1.328125 0 2.03125 0.125q0.96875 0.171875 1.640625 0.640625q0.671875 0.453125 1.078125 1.28125q0.40625 0.828125 0.40625 1.828125q0 1.703125 -1.09375 2.890625q-1.078125 1.171875 -3.921875 1.171875l-3.421875 0l0 5.421875l-1.765625 0zm1.765625 -7.0l3.453125 0q1.71875 0 2.4375 -0.640625q0.71875 -0.640625 0.71875 -1.796875q0 -0.84375 -0.421875 -1.4375q-0.421875 -0.59375 -1.125 -0.78125q-0.4375 -0.125 -1.640625 -0.125l-3.421875 0l0 4.78125z" fill-rule="nonzero"/><path fill="#000000" fill-opacity="0.0" d="m115.238846 36.614174l44.629913 0l0 64.62992l-44.629913 0z" fill-rule="evenodd"/><path fill="#000000" d="m135.80135 62.096672q1.234375 0.859375 2.265625 1.25l-0.515625 1.21875q-1.4375 -0.515625 -2.875 -1.625q-1.484375 0.828125 -3.28125 0.828125q-1.8125 0 -3.296875 -0.875q-1.46875 -0.875 -2.265625 -2.453125q-0.796875 -1.59375 -0.796875 -3.578125q0 -1.984375 0.796875 -3.59375q0.8125 -1.625 2.28125 -2.46875q1.484375 -0.859375 3.328125 -0.859375q1.84375 0 3.328125 0.890625q1.484375 0.875 2.265625 2.453125q0.78125 1.578125 0.78125 3.5625q0 1.65625 -0.5 2.96875q-0.5 1.3125 -1.515625 2.28125zm-3.890625 -2.25q1.53125 0.421875 2.515625 1.28125q1.5625 -1.421875 1.5625 -4.28125q0 -1.625 -0.546875 -2.828125q-0.546875 -1.21875 -1.609375 -1.875q-1.0625 -0.671875 -2.390625 -0.671875q-1.96875 0 -3.28125 1.359375q-1.296875 1.34375 -1.296875 4.03125q0 2.59375 1.28125 4.0q1.296875 1.390625 3.296875 1.390625q0.953125 0 1.78125 -0.359375q-0.828125 -0.53125 -1.75 -0.765625l0.4375 -1.28125z" fill-rule="nonzero"/><path fill="#000000" d="m139.65652 70.53417l0 -8.90625l1.1875 0l0 7.859375l4.375 0l0 1.046875l-5.5625 0z" fill-rule="nonzero"/><path fill="#000000" d="m145.37325 89.809166l1.171875 0.296875q-0.359375 1.453125 -1.328125 2.21875q-0.96875 0.765625 -2.359375 0.765625q-1.4375 0 -2.34375 -0.578125q-0.890625 -0.59375 -1.359375 -1.703125q-0.46875 -1.125 -0.46875 -2.390625q0 -1.390625 0.53125 -2.421875q0.53125 -1.046875 1.5 -1.578125q0.984375 -0.546875 2.171875 -0.546875q1.328125 0 2.234375 0.6875q0.921875 0.6875 1.28125 1.90625l-1.171875 0.28125q-0.296875 -0.96875 -0.890625 -1.40625q-0.59375 -0.453125 -1.484375 -0.453125q-1.03125 0 -1.71875 0.5q-0.6875 0.484375 -0.96875 1.3125q-0.28125 0.828125 -0.28125 1.703125q0 1.140625 0.328125 2.0q0.34375 0.84375 1.03125 1.265625q0.703125 0.40625 1.515625 0.40625q1.0 0 1.671875 -0.5625q0.6875 -0.578125 0.9375 -1.703125z" fill-rule="nonzero"/><path fill="#000000" fill-opacity="0.0" d="m37.37571 82.98435c6.279251 3.6163101 10.0460205 10.148743 9.876011 17.12725l-20.49844 -0.45149994z" fill-rule="evenodd"/><path fill="#000000" fill-opacity="0.0" d="m37.37571 82.98435c6.279251 3.6163101 10.0460205 10.148743 9.876011 17.12725" fill-rule="evenodd"/><path stroke="#000000" stroke-width="1.0" stroke-linejoin="round" stroke-linecap="butt" d="m37.37571 82.98435c6.279251 3.6163101 10.0460205 10.148743 9.876011 17.12725" fill-rule="evenodd"/><path fill="#000000" fill-opacity="0.0" d="m38.73491 61.61286l32.0 0l0 42.83465l-32.0 0z" fill-rule="evenodd"/><path fill="#000000" d="m53.98491 78.92286l-0.703125 1.65625q-1.25 0.25 -2.03125 1.5625q-0.765625 1.3125 -0.765625 2.828125q0 1.1875 0.671875 1.953125q0.671875 0.765625 1.703125 0.984375l0.984375 -4.65625q0.34375 -1.625 0.703125 -2.453125q0.359375 -0.84375 1.015625 -1.359375q0.671875 -0.515625 1.5 -0.515625q1.203125 0 2.125 1.0625q0.921875 1.046875 0.921875 2.9375q0 1.890625 -0.90625 3.453125q-0.90625 1.546875 -2.03125 2.203125q-1.125 0.65625 -2.9375 0.8125l-0.75 3.625l-1.703125 0l0.75 -3.625q-1.796875 -0.25 -2.78125 -1.546875q-0.96875 -1.3125 -0.96875 -3.0625q0 -2.234375 1.46875 -4.015625q1.484375 -1.796875 3.734375 -1.84375zm0.5625 8.96875q1.875 -0.25 2.90625 -1.78125q1.03125 -1.53125 1.03125 -3.421875q0 -1.15625 -0.375 -1.75q-0.359375 -0.609375 -0.953125 -0.609375q-0.59375 0 -0.921875 0.59375q-0.3125 0.578125 -0.671875 2.234375l-1.015625 4.734375z" fill-rule="nonzero"/><path fill="#000000" fill-opacity="0.0" d="m218.19948 100.103676l93.54329 0" fill-rule="evenodd"/><path stroke="#000000" stroke-width="1.0" stroke-linejoin="round" stroke-linecap="butt" d="m218.19948 100.103676l87.54329 0" fill-rule="evenodd"/><path fill="#000000" stroke="#000000" stroke-width="1.0" stroke-linecap="butt" d="m305.74277 101.75541l4.5381165 -1.6517334l-4.5381165 -1.6517334z" fill-rule="evenodd"/><path fill="#000000" fill-opacity="0.0" d="m311.74277 100.103676l0 -93.543304" fill-rule="evenodd"/><path stroke="#000000" stroke-width="1.0" stroke-linejoin="round" stroke-linecap="butt" d="m311.74277 100.103676l0 -87.543304" fill-rule="evenodd"/><path fill="#000000" stroke="#000000" stroke-width="1.0" stroke-linecap="butt" d="m313.3945 12.560368l-1.6517334 -4.5380974l-1.6517029 4.5380974z" fill-rule="evenodd"/><path fill="#000000" fill-opacity="0.0" d="m218.2546 100.05643l93.511826 -93.48031" fill-rule="evenodd"/><path stroke="#000000" stroke-width="1.0" stroke-linejoin="round" stroke-linecap="butt" d="m218.2546 100.05643l89.26845 -89.23839" fill-rule="evenodd"/><path fill="#000000" stroke="#000000" stroke-width="1.0" stroke-linecap="butt" d="m308.6908 11.986189l2.0417175 -4.3765264l-4.377228 2.0402312z" fill-rule="evenodd"/><path fill="#000000" fill-opacity="0.0" d="m296.7533 84.555115l15.023621 0l0 15.496063l-15.023621 0z" fill-rule="evenodd"/><path stroke="#000000" stroke-width="1.0" stroke-linejoin="round" stroke-linecap="butt" stroke-dasharray="4.0,3.0" d="m296.7533 84.555115l15.023621 0l0 15.496063l-15.023621 0z" fill-rule="evenodd"/><path fill="#000000" fill-opacity="0.0" d="m228.75066 25.05643l38.488174 0l0 42.01575l-38.488174 0z" fill-rule="evenodd"/><path fill="#000000" d="m247.95378 38.617054l1.765625 0l0 7.71875q0 2.015625 -0.453125 3.203125q-0.453125 1.1875 -1.640625 1.9375q-1.1875 0.734375 -3.125 0.734375q-1.875 0 -3.078125 -0.640625q-1.1875 -0.65625 -1.703125 -1.875q-0.5 -1.234375 -0.5 -3.359375l0 -7.71875l1.765625 0l0 7.71875q0 1.734375 0.3125 2.5625q0.328125 0.8125 1.109375 1.265625q0.796875 0.453125 1.9375 0.453125q1.953125 0 2.78125 -0.890625q0.828125 -0.890625 0.828125 -3.390625l0 -7.71875z" fill-rule="nonzero"/><path fill="#000000" fill-opacity="0.0" d="m245.7664 91.05643l50.99214 0l0 42.015747l-50.99214 0z" fill-rule="evenodd"/><path fill="#000000" d="m264.96954 104.61705l1.765625 0l0 7.71875q0 2.015625 -0.453125 3.203125q-0.453125 1.1875 -1.640625 1.9375q-1.1875 0.734375 -3.125 0.734375q-1.875 0 -3.078125 -0.640625q-1.1875 -0.65625 -1.703125 -1.875q-0.5 -1.234375 -0.5 -3.359375l0 -7.71875l1.765625 0l0 7.71875q0 1.734375 0.3125 2.5625q0.328125 0.8125 1.109375 1.265625q0.796875 0.453125 1.9375 0.453125q1.953125 0 2.78125 -0.890625q0.828125 -0.890625 0.828125 -3.390625l0 -7.71875z" fill-rule="nonzero"/><path fill="#000000" d="m269.22372 124.976425l0 -8.90625l3.9375 0q1.1875 0 1.8125 0.25q0.625 0.234375 0.984375 0.84375q0.375 0.609375 0.375 1.34375q0 0.9375 -0.609375 1.59375q-0.609375 0.640625 -1.890625 0.828125q0.46875 0.21875 0.703125 0.4375q0.515625 0.46875 0.984375 1.1875l1.546875 2.421875l-1.484375 0l-1.171875 -1.859375q-0.53125 -0.796875 -0.859375 -1.21875q-0.328125 -0.421875 -0.59375 -0.59375q-0.265625 -0.171875 -0.546875 -0.234375q-0.1875 -0.046875 -0.65625 -0.046875l-1.359375 0l0 3.953125l-1.171875 0zm1.171875 -4.96875l2.53125 0q0.8125 0 1.265625 -0.171875q0.453125 -0.171875 0.6875 -0.53125q0.234375 -0.375 0.234375 -0.796875q0 -0.640625 -0.453125 -1.046875q-0.453125 -0.40625 -1.453125 -0.40625l-2.8125 0l0 2.953125z" fill-rule="nonzero"/><path fill="#000000" fill-opacity="0.0" d="m311.74277 37.05643l49.51184 0l0 64.62991l-49.51184 0z" fill-rule="evenodd"/><path fill="#000000" d="m330.9459 50.617054l1.765625 0l0 7.71875q0 2.015625 -0.453125 3.203125q-0.453125 1.1875 -1.640625 1.9375q-1.1875 0.7343712 -3.125 0.7343712q-1.875 0 -3.078125 -0.6406212q-1.1875 -0.65625 -1.703125 -1.875q-0.5 -1.234375 -0.5 -3.359375l0 -7.71875l1.765625 0l0 7.71875q0 1.734375 0.3125 2.5625q0.328125 0.8125 1.109375 1.265625q0.796875 0.453125 1.9375 0.453125q1.953125 0 2.78125 -0.890625q0.828125 -0.890625 0.828125 -3.390625l0 -7.71875z" fill-rule="nonzero"/><path fill="#000000" d="m335.12198 70.976425l0 -8.906246l1.1875 0l0 7.859371l4.375 0l0 1.046875l-5.5625 0z" fill-rule="nonzero"/><path fill="#000000" d="m341.87717 90.25143l1.171875 0.296875q-0.359375 1.453125 -1.328125 2.21875q-0.96875 0.765625 -2.359375 0.765625q-1.4375 0 -2.34375 -0.578125q-0.890625 -0.59375 -1.359375 -1.703125q-0.46875 -1.125 -0.46875 -2.390625q0 -1.390625 0.53125 -2.421875q0.53125 -1.046875 1.5 -1.578125q0.984375 -0.546875 2.171875 -0.546875q1.328125 0 2.234375 0.6875q0.921875 0.6875 1.28125 1.90625l-1.171875 0.28125q-0.296875 -0.96875 -0.890625 -1.40625q-0.59375 -0.453125 -1.484375 -0.453125q-1.03125 0 -1.71875 0.5q-0.6875 0.484375 -0.96875 1.3125q-0.28125 0.828125 -0.28125 1.703125q0 1.140625 0.328125 2.0q0.34375 0.84375 1.03125 1.265625q0.703125 0.40625 1.515625 0.40625q1.0 0 1.671875 -0.5625q0.6875 -0.578125 0.9375 -1.703125z" fill-rule="nonzero"/><path fill="#000000" fill-opacity="0.0" d="m233.87964 83.42792c6.2792664 3.6163101 10.0460205 10.148743 9.876022 17.12725l-20.498444 -0.4514923z" fill-rule="evenodd"/><path fill="#000000" fill-opacity="0.0" d="m233.87964 83.42792c6.2792664 3.6163101 10.0460205 10.148743 9.876022 17.12725" fill-rule="evenodd"/><path stroke="#000000" stroke-width="1.0" stroke-linejoin="round" stroke-linecap="butt" d="m233.87964 83.42792c6.2792664 3.6163101 10.0460205 10.148743 9.876022 17.12725" fill-rule="evenodd"/><path fill="#000000" fill-opacity="0.0" d="m235.23885 62.05643l31.999985 0l0 42.834644l-31.999985 0z" fill-rule="evenodd"/><path fill="#000000" d="m250.48885 79.36643l-0.703125 1.65625q-1.25 0.25 -2.03125 1.5625q-0.765625 1.3125 -0.765625 2.828125q0 1.1875 0.671875 1.953125q0.671875 0.765625 1.703125 0.984375l0.984375 -4.65625q0.34375 -1.625 0.703125 -2.453125q0.359375 -0.84375 1.015625 -1.359375q0.671875 -0.515625 1.5 -0.515625q1.203125 0 2.125 1.0625q0.92185974 1.046875 0.92185974 2.9375q0 1.890625 -0.90623474 3.453125q-0.90625 1.546875 -2.03125 2.203125q-1.125 0.65625 -2.9375 0.8125l-0.75 3.625l-1.703125 0l0.75 -3.625q-1.796875 -0.25 -2.78125 -1.546875q-0.96875 -1.3125 -0.96875 -3.0625q0 -2.234375 1.46875 -4.015625q1.484375 -1.796875 3.734375 -1.84375zm0.5625 8.96875q1.875 -0.25 2.90625 -1.78125q1.03125 -1.53125 1.03125 -3.421875q0 -1.15625 -0.375 -1.75q-0.359375 -0.609375 -0.953125 -0.609375q-0.59375 0 -0.921875 0.59375q-0.3125 0.578125 -0.671875 2.234375l-1.015625 4.734375z" fill-rule="nonzero"/><path fill="#000000" fill-opacity="0.0" d="m406.958 100.10236l93.543304 0" fill-rule="evenodd"/><path stroke="#000000" stroke-width="1.0" stroke-linejoin="round" stroke-linecap="butt" d="m406.958 100.10236l87.543304 0" fill-rule="evenodd"/><path fill="#000000" stroke="#000000" stroke-width="1.0" stroke-linecap="butt" d="m494.5013 101.7541l4.538086 -1.6517334l-4.538086 -1.6517334z" fill-rule="evenodd"/><path fill="#000000" fill-opacity="0.0" d="m500.5013 100.10236l0 -93.543304" fill-rule="evenodd"/><path stroke="#000000" stroke-width="1.0" stroke-linejoin="round" stroke-linecap="butt" d="m500.5013 100.10236l0 -87.543304" fill-rule="evenodd"/><path fill="#000000" stroke="#000000" stroke-width="1.0" stroke-linecap="butt" d="m502.15305 12.559055l-1.6517334 -4.5380983l-1.6517334 4.5380983z" fill-rule="evenodd"/><path fill="#000000" fill-opacity="0.0" d="m407.01312 100.055115l93.51181 -93.48031" fill-rule="evenodd"/><path stroke="#000000" stroke-width="1.0" stroke-linejoin="round" stroke-linecap="butt" d="m407.01312 100.055115l89.26846 -89.23839" fill-rule="evenodd"/><path fill="#000000" stroke="#000000" stroke-width="1.0" stroke-linecap="butt" d="m497.44934 11.984877l2.041687 -4.3765264l-4.3771973 2.0402312z" fill-rule="evenodd"/><path fill="#000000" fill-opacity="0.0" d="m485.5118 84.5538l15.023621 0l0 15.496063l-15.023621 0z" fill-rule="evenodd"/><path stroke="#000000" stroke-width="1.0" stroke-linejoin="round" stroke-linecap="butt" stroke-dasharray="4.0,3.0" d="m485.5118 84.5538l15.023621 0l0 15.496063l-15.023621 0z" fill-rule="evenodd"/><path fill="#000000" fill-opacity="0.0" d="m417.5092 25.055119l38.48819 0l0 42.01575l-38.48819 0z" fill-rule="evenodd"/><path fill="#000000" d="m426.8842 51.975117l0 -1.640625l6.84375 -8.546875q0.71875 -0.921875 1.375 -1.59375l-7.453125 0l0 -1.578125l9.578125 0l0 1.578125l-7.5 9.265625l-0.8125 0.9375l8.53125 0l0 1.578125l-10.5625 0z" fill-rule="nonzero"/><path fill="#000000" fill-opacity="0.0" d="m434.52493 91.055115l38.48819 0l0 42.015747l-38.48819 0z" fill-rule="evenodd"/><path fill="#000000" d="m444.99368 117.97511l0 -13.359375l5.921875 0q1.78125 0 2.703125 0.359375q0.9375 0.359375 1.484375 1.28125q0.5625 0.90625 0.5625 2.015625q0 1.40625 -0.921875 2.390625q-0.921875 0.96875 -2.84375 1.234375q0.703125 0.34375 1.078125 0.671875q0.765625 0.703125 1.453125 1.765625l2.328125 3.640625l-2.21875 0l-1.765625 -2.78125q-0.78125 -1.203125 -1.28125 -1.828125q-0.5 -0.640625 -0.90625 -0.890625q-0.390625 -0.265625 -0.796875 -0.359375q-0.296875 -0.078125 -0.984375 -0.078125l-2.046875 0l0 5.9375l-1.765625 0zm1.765625 -7.453125l3.796875 0q1.21875 0 1.890625 -0.25q0.6875 -0.265625 1.046875 -0.8125q0.359375 -0.546875 0.359375 -1.1875q0 -0.953125 -0.6875 -1.5625q-0.6875 -0.609375 -2.1875 -0.609375l-4.21875 0l0 4.421875z" fill-rule="nonzero"/><path fill="#000000" fill-opacity="0.0" d="m500.5013 37.05512l44.629913 0l0 64.62991l-44.629913 0z" fill-rule="evenodd"/><path fill="#000000" d="m509.57944 63.975117l5.1719055 -6.953125l-4.5625305 -6.40625l2.1094055 0l2.421875 3.4375q0.75 1.0625 1.078125 1.625q0.4375 -0.71875 1.046875 -1.515625l2.6875 -3.546875l1.921875 0l-4.6875 6.296875l5.0625 7.0625l-2.1875 0l-3.359375 -4.765625q-0.28125 -0.40625 -0.59375 -0.890625q-0.4375 0.734375 -0.625 1.0l-3.3594055 4.65625l-2.125 0z" fill-rule="nonzero"/><path fill="#000000" d="m522.85114 70.97511l0 -8.906246l1.1875 0l0 7.859371l4.375 0l0 1.046875l-5.5625 0z" fill-rule="nonzero"/><path fill="#000000" d="m530.63574 90.250114l1.171875 0.296875q-0.359375 1.453125 -1.328125 2.21875q-0.96875 0.765625 -2.359375 0.765625q-1.4375 0 -2.34375 -0.578125q-0.890625 -0.59375 -1.359375 -1.703125q-0.46875 -1.125 -0.46875 -2.390625q0 -1.390625 0.53125 -2.421875q0.53125 -1.046875 1.5 -1.578125q0.984375 -0.546875 2.171875 -0.546875q1.328125 0 2.234375 0.6875q0.921875 0.6875 1.28125 1.90625l-1.171875 0.28125q-0.296875 -0.96875 -0.890625 -1.40625q-0.59375 -0.453125 -1.484375 -0.453125q-1.03125 0 -1.71875 0.5q-0.6875 0.484375 -0.96875 1.3125q-0.28125 0.828125 -0.28125 1.703125q0 1.140625 0.328125 2.0q0.34375 0.84375 1.03125 1.265625q0.703125 0.40625 1.515625 0.40625q1.0 0 1.671875 -0.5625q0.6875 -0.578125 0.9375 -1.703125z" fill-rule="nonzero"/><path fill="#000000" fill-opacity="0.0" d="m422.63818 83.426605c6.279236 3.6163101 10.0460205 10.148743 9.876007 17.12725l-20.498444 -0.4514923z" fill-rule="evenodd"/><path fill="#000000" fill-opacity="0.0" d="m422.63818 83.426605c6.279236 3.6163101 10.0460205 10.148743 9.876007 17.12725" fill-rule="evenodd"/><path stroke="#000000" stroke-width="1.0" stroke-linejoin="round" stroke-linecap="butt" d="m422.63818 83.426605c6.279236 3.6163101 10.0460205 10.148743 9.876007 17.12725" fill-rule="evenodd"/><path fill="#000000" fill-opacity="0.0" d="m423.99738 62.05512l32.0 0l0 42.834644l-32.0 0z" fill-rule="evenodd"/><path fill="#000000" d="m439.24738 79.36512l-0.703125 1.65625q-1.25 0.25 -2.03125 1.5625q-0.765625 1.3125 -0.765625 2.828125q0 1.1875 0.671875 1.953125q0.671875 0.765625 1.703125 0.984375l0.984375 -4.65625q0.34375 -1.625 0.703125 -2.453125q0.359375 -0.84375 1.015625 -1.359375q0.671875 -0.515625 1.5 -0.515625q1.203125 0 2.125 1.0625q0.921875 1.046875 0.921875 2.9375q0 1.890625 -0.90625 3.453125q-0.90625 1.546875 -2.03125 2.203125q-1.125 0.65625 -2.9375 0.8125l-0.75 3.625l-1.703125 0l0.75 -3.625q-1.796875 -0.25 -2.78125 -1.546875q-0.96875 -1.3125 -0.96875 -3.0625q0 -2.234375 1.46875 -4.015625q1.484375 -1.796875 3.734375 -1.84375zm0.5625 8.96875q1.875 -0.25 2.90625 -1.78125q1.03125 -1.53125 1.03125 -3.421875q0 -1.15625 -0.375 -1.75q-0.359375 -0.609375 -0.953125 -0.609375q-0.59375 0 -0.921875 0.59375q-0.3125 0.578125 -0.671875 2.234375l-1.015625 4.734375z" fill-rule="nonzero"/></g></svg>