<?xml version="1.0" encoding="UTF-8" standalone="no"?>
<!-- Created with Inkscape (http://www.inkscape.org/) -->

<svg
   width="16.074518mm"
   height="6.932034mm"
   viewBox="0 0 16.074518 6.932034"
   version="1.1"
   id="svg12485"
   inkscape:version="1.1.2 (b8e25be833, 2022-02-05)"
   sodipodi:docname="drawing.svg"
   xmlns:inkscape="http://www.inkscape.org/namespaces/inkscape"
   xmlns:sodipodi="http://sodipodi.sourceforge.net/DTD/sodipodi-0.dtd"
   xmlns="http://www.w3.org/2000/svg"
   xmlns:svg="http://www.w3.org/2000/svg">
  <sodipodi:namedview
     id="namedview12487"
     pagecolor="#ffffff"
     bordercolor="#666666"
     borderopacity="1.0"
     inkscape:pageshadow="2"
     inkscape:pageopacity="0.0"
     inkscape:pagecheckerboard="0"
     inkscape:document-units="mm"
     showgrid="false"
     inkscape:zoom="19.867493"
     inkscape:cx="30.376254"
     inkscape:cy="13.640372"
     inkscape:window-width="1920"
     inkscape:window-height="1017"
     inkscape:window-x="-8"
     inkscape:window-y="-8"
     inkscape:window-maximized="1"
     inkscape:current-layer="layer1"
     fit-margin-top="0"
     fit-margin-left="0"
     fit-margin-right="0"
     fit-margin-bottom="0" />
  <defs
     id="defs12482" />
  <g
     inkscape:label="Lager 1"
     inkscape:groupmode="layer"
     id="layer1"
     transform="translate(-4.1143649,-2.9671957)">
    <path
       d="m 7.8469934,9.0993792 h -2.66616"
       style="fill:none;stroke:#000000;stroke-width:0.266617;stroke-linecap:square;stroke-linejoin:miter;stroke-miterlimit:2;stroke-dasharray:none;stroke-opacity:1"
       id="path885" />
    <path
       d="m 7.8469934,3.7670472 h -2.66616"
       style="fill:none;stroke:#000000;stroke-width:0.266617;stroke-linecap:square;stroke-linejoin:miter;stroke-miterlimit:2;stroke-dasharray:none;stroke-opacity:1"
       id="path887" />
    <path
       d="m 4.9142134,9.0993792 c -0.36812,0 -0.66654,-0.298421 -0.66654,-0.666541 0,-0.368121 0.29842,-0.666542 0.66654,-0.666542"
       style="fill:none;stroke:#000000;stroke-width:0.266617;stroke-linecap:square;stroke-linejoin:bevel;stroke-miterlimit:2;stroke-dasharray:none;stroke-opacity:1"
       id="path889" />
    <path
       d="m 4.9142134,7.7662962 c -0.36812,0 -0.66654,-0.298421 -0.66654,-0.666541 0,-0.368121 0.29842,-0.666542 0.66654,-0.666542"
       style="fill:none;stroke:#000000;stroke-width:0.266617;stroke-linecap:square;stroke-linejoin:bevel;stroke-miterlimit:2;stroke-dasharray:none;stroke-opacity:1"
       id="path891" />
    <path
       d="m 4.9142134,6.4332132 c -0.36812,0 -0.66654,-0.298421 -0.66654,-0.666542 0,-0.36812 0.29842,-0.666541 0.66654,-0.666541"
       style="fill:none;stroke:#000000;stroke-width:0.266617;stroke-linecap:square;stroke-linejoin:bevel;stroke-miterlimit:2;stroke-dasharray:none;stroke-opacity:1"
       id="path893" />
    <path
       d="m 4.9142134,5.1001302 c -0.36812,0 -0.66654,-0.298421 -0.66654,-0.666542 0,-0.36812 0.29842,-0.666541 0.66654,-0.666541"
       style="fill:none;stroke:#000000;stroke-width:0.266617;stroke-linecap:square;stroke-linejoin:bevel;stroke-miterlimit:2;stroke-dasharray:none;stroke-opacity:1"
       id="path895" />
    <path
       d="m 15.845483,9.0993792 h 1.86632"
       style="fill:none;stroke:#000000;stroke-width:0.266617;stroke-linecap:square;stroke-linejoin:miter;stroke-miterlimit:2;stroke-dasharray:none;stroke-opacity:1"
       id="path917" />
    <path
       d="m 18.511653,8.4328372 c 0.36812,0 0.66654,0.298421 0.66654,0.666542 0,0.368121 -0.29842,0.666542 -0.66654,0.666542 -0.36812,0 -0.66654,-0.298421 -0.66654,-0.666542 0,-0.368121 0.29842,-0.666542 0.66654,-0.666542 z"
       style="fill:none;stroke:#000000;stroke-width:0.266617;stroke-linecap:square;stroke-linejoin:bevel;stroke-miterlimit:2;stroke-dasharray:none;stroke-opacity:1"
       id="path919" />
    <path
       d="m 15.845483,3.7670462 h 1.86632"
       style="fill:none;stroke:#000000;stroke-width:0.266617;stroke-linecap:square;stroke-linejoin:miter;stroke-miterlimit:2;stroke-dasharray:none;stroke-opacity:1"
       id="path1003" />
    <path
       d="m 18.511653,3.1005042 c 0.36812,0 0.66654,0.298421 0.66654,0.666542 0,0.368121 -0.29842,0.666542 -0.66654,0.666542 -0.36812,0 -0.66654,-0.298421 -0.66654,-0.666542 0,-0.368121 0.29842,-0.666542 0.66654,-0.666542 z"
       style="fill:none;stroke:#000000;stroke-width:0.266617;stroke-linecap:square;stroke-linejoin:bevel;stroke-miterlimit:2;stroke-dasharray:none;stroke-opacity:1"
       id="path1005" />
    <path
       d="m 15.845493,9.0993802 h -2.39955 -2.93278 -0.26662 -2.3995496"
       style="fill:none;stroke:#000000;stroke-width:0.266617;stroke-linecap:square;stroke-linejoin:miter;stroke-miterlimit:2;stroke-dasharray:none;stroke-opacity:1"
       id="path1049" />
    <path
       d="m 15.845493,3.7670472 h -2.39955 -2.93278 -0.26662 -2.3995496"
       style="fill:none;stroke:#000000;stroke-width:0.266617;stroke-linecap:square;stroke-linejoin:miter;stroke-miterlimit:2;stroke-dasharray:none;stroke-opacity:1"
       id="path1091" />
    <text
       xml:space="preserve"
       style="font-style:normal;font-weight:normal;font-size:2.82222px;line-height:0.95;font-family:sans-serif;fill:#000000;fill-opacity:1;stroke:none;stroke-width:0.264583"
       x="9.8894329"
       y="7.3273935"
       id="text2083"><tspan
         sodipodi:role="line"
         id="tspan2081"
         style="font-size:2.82222px;stroke-width:0.264583"
         x="9.8894329"
         y="7.3273935">24V AC</tspan></text>
  </g>
</svg>
